<?xml version="1.0" encoding="UTF-8"?>
<svg id="Réteg_2" data-name="Réteg 2" xmlns="http://www.w3.org/2000/svg" viewBox="0 0 57.99 93.4">
  <defs>
    <style>
      .cls-1, .cls-2, .cls-3 {
        fill: #fff;
      }

      .cls-2 {
        font-family: Gotham-Bold, Gotham;
        font-size: 14px;
        font-weight: 700;
      }

      .cls-4 {
        letter-spacing: 0em;
      }

      .cls-3 {
        font-family: Gotham-Light, Gotham;
        font-size: 11px;
        font-weight: 300;
      }
    </style>
  </defs>
  <g id="Réteg_1" data-name="Réteg 1">
    <g>
      <g>
        <path class="cls-1" d="M28.78,0c12.92-.24,24.76,8.98,28.12,21.33,7.45,27.38-24.85,48-46.59,29.79C-10.32,33.84,2.16.5,28.78,0M9.86,48.26c11.59,11.59,30.89,10.18,40.74-2.84C64.93,26.51,49.53-.56,26.03,2.01,3.5,4.48-6.31,32.09,9.86,48.26"/>
        <path class="cls-1" d="M14.62,39.27c3.08,3.08,7.36,4.83,10.21,8.2,1.56,1.84,2.48,4.11,3.48,6.28-.2.18-1.5-1.22-1.7-1.44-1.54-1.63-2.86-3.41-4.58-4.93-2.94-2.61-6.52-4.66-9.25-7.55-.29.18.07.37.17.51,1.82,2.38,4.36,4.01,6.53,6.02,2.47,2.3,4.68,4.87,6.61,7.64.04.28.01.27-.25.25-.69-.05-5.23-1.05-5.48-1.4-.76-4.83-5.36-7.51-8.44-10.82-7.92-8.52-6.59-19.92,3.26-26.11,3.28-2.06,7.1-3.25,9.72-6.31-.05,1.87-1.09,3.71-2.29,5.09-2.3,2.66-5.93,3.43-8.57,5.68-6.31,5.36-4.81,13.49.57,18.87"/>
        <path class="cls-1" d="M39.17,52.06c-.54-2.11-.23-4.31.82-6.22l1.89-2.77c-2.13,1.68-4.05,4.6-4.08,7.39,0,1.18,1.08,2.65-.83,2.61-.31-.74-.61-1.39-.79-2.19-1.75-7.88,8.1-10.96,10.98-16.86,1.37-2.8,1.53-6.69.11-9.5-.55-1.1-3.61-4.64-2.94-5.72l.43-.27c1.94.67,3.28,3.38,3.91,5.27,1.37,4.14.99,8.46-1.02,12.31.44.11.3-.14.44-.32,2.57-3.22,2.74-8.43,1.72-12.27-.4-1.51-2.04-4.55-1.61-5.95.48-1.58,2.24,1.51,2.49,2.02,2.27,4.68,2.42,12.21-.12,16.81-2.54,4.61-9.22,8.42-10.02,13.57-.19,1.19.4,1.93-1.38,2.1"/>
        <path class="cls-1" d="M42.52,28c.22.2.49,1.29.51,1.61.41,8.57-12.4,8.81-11.5,19.99.14,1.74,1.01,3.05,1.37,4.66l-1.92.14c-.61-.18-1.84-2.48-2.13-3.13-2.66-5.83-1.34-11.71,4.27-15.03,2.46-1.46,5.37-1.98,6.71-4.83.34-.72,1.26-4.76,2.7-3.41"/>
        <path class="cls-1" d="M35.77,53.58l-1.53.27c-1.76-2.83-2.11-6.45-.66-9.49,2.84-5.95,15.43-9.82,11.27-18.27-.4-.82-3.43-3.41-1.96-4.16,1.31-.66,3.23,3.1,3.57,4.08,3.85,11.09-10.87,13.03-11.55,22.23-.14,1.95.24,3.53.85,5.35"/>
        <path class="cls-1" d="M22.02,17.1c-.49,4.17-5.57,4.71-7.88,7.65-3.58,4.57-.72,9.61,3.05,12.88,3.16,2.74,8.17,4.63,8.73,9.34-1.27-1-2.26-2.35-3.48-3.39-4.82-4.11-10.75-6.28-11.26-13.86-.45-6.75,4.12-8.65,8.92-11.41.25-.14,1.83-1.32,1.92-1.22"/>
        <path class="cls-1" d="M8.28,20.66c.87-4.63,4.29-8.17,8.16-10.59,2.57-1.61,6.02-2.9,8.14-5.1.54-.56.83-1.37,1.52-1.79-.16.56-.1,1.18-.21,1.74-1.17,6.06-7.95,7.42-12.33,10.58-2.01,1.45-3.7,3.26-5.28,5.16"/>
        <path class="cls-1" d="M26.27,43.74c-.84-.82-1.33-1.79-2.2-2.63-2.89-2.77-7.45-4.36-8.83-8.48-.42-1.26-.98-4.69.19-5.6,1.77-1.38,2.15,3.09,2.46,3.97,1.24,3.54,5.25,4.87,7.11,7.99.89,1.49,1.25,3,1.29,4.74"/>
      </g>
      <text class="cls-2" transform="translate(2.54 77.73)"><tspan class="cls-4" x="0" y="0">T</tspan><tspan x="8.95" y="0">im</tspan><tspan class="cls-4" x="26.47" y="0">T</tspan><tspan x="35.42" y="0">im</tspan></text>
      <text class="cls-3" transform="translate(2.59 90.93)"><tspan x="0" y="0">CERAMIC</tspan></text>
    </g>
  </g>
</svg>