<?xml version="1.0" encoding="UTF-8"?>
<svg id="Réteg_2" data-name="Réteg 2" xmlns="http://www.w3.org/2000/svg" viewBox="0 0 57.99 93.4">
  <defs>
    <style>
      .cls-1 {
        fill: #fff;
      }
    </style>
  </defs>
  <g id="Réteg_1" data-name="Réteg 1">
    <g>
      <g>
        <path class="cls-1" d="M28.78,0c12.92-.24,24.76,8.98,28.12,21.33,7.45,27.38-24.85,48-46.59,29.79C-10.32,33.84,2.16.5,28.78,0M9.86,48.26c11.59,11.59,30.89,10.18,40.74-2.84C64.93,26.51,49.53-.56,26.03,2.01,3.5,4.48-6.31,32.09,9.86,48.26"/>
        <path class="cls-1" d="M14.62,39.27c3.08,3.08,7.36,4.83,10.21,8.2,1.56,1.84,2.48,4.11,3.48,6.28-.2.18-1.5-1.22-1.7-1.44-1.54-1.63-2.86-3.41-4.58-4.93-2.94-2.61-6.52-4.66-9.25-7.55-.29.18.07.37.17.51,1.82,2.38,4.36,4.01,6.53,6.02,2.47,2.3,4.68,4.87,6.61,7.64.04.28.01.27-.25.25-.69-.05-5.23-1.05-5.48-1.4-.76-4.83-5.36-7.51-8.44-10.82-7.92-8.52-6.59-19.92,3.26-26.11,3.28-2.06,7.1-3.25,9.72-6.31-.05,1.87-1.09,3.71-2.29,5.09-2.3,2.66-5.93,3.43-8.57,5.68-6.31,5.36-4.81,13.49.57,18.87"/>
        <path class="cls-1" d="M39.17,52.06c-.54-2.11-.23-4.31.82-6.22l1.89-2.77c-2.13,1.68-4.05,4.6-4.08,7.39,0,1.18,1.08,2.65-.83,2.61-.31-.74-.61-1.39-.79-2.19-1.75-7.88,8.1-10.96,10.98-16.86,1.37-2.8,1.53-6.69.11-9.5-.55-1.1-3.61-4.64-2.94-5.72l.43-.27c1.94.67,3.28,3.38,3.91,5.27,1.37,4.14.99,8.46-1.02,12.31.44.11.3-.14.44-.32,2.57-3.22,2.74-8.43,1.72-12.27-.4-1.51-2.04-4.55-1.61-5.95.48-1.58,2.24,1.51,2.49,2.02,2.27,4.68,2.42,12.21-.12,16.81-2.54,4.61-9.22,8.42-10.02,13.57-.19,1.19.4,1.93-1.38,2.1"/>
        <path class="cls-1" d="M42.52,28c.22.2.49,1.29.51,1.61.41,8.57-12.4,8.81-11.5,19.99.14,1.74,1.01,3.05,1.37,4.66l-1.92.14c-.61-.18-1.84-2.48-2.13-3.13-2.66-5.83-1.34-11.71,4.27-15.03,2.46-1.46,5.37-1.98,6.71-4.83.34-.72,1.26-4.76,2.7-3.41"/>
        <path class="cls-1" d="M35.77,53.58l-1.53.27c-1.76-2.83-2.11-6.45-.66-9.49,2.84-5.95,15.43-9.82,11.27-18.27-.4-.82-3.43-3.41-1.96-4.16,1.31-.66,3.23,3.1,3.57,4.08,3.85,11.09-10.87,13.03-11.55,22.23-.14,1.95.24,3.53.85,5.35"/>
        <path class="cls-1" d="M22.02,17.1c-.49,4.17-5.57,4.71-7.88,7.65-3.58,4.57-.72,9.61,3.05,12.88,3.16,2.74,8.17,4.63,8.73,9.34-1.27-1-2.26-2.35-3.48-3.39-4.82-4.11-10.75-6.28-11.26-13.86-.45-6.75,4.12-8.65,8.92-11.41.25-.14,1.83-1.32,1.92-1.22"/>
        <path class="cls-1" d="M8.28,20.66c.87-4.63,4.29-8.17,8.16-10.59,2.57-1.61,6.02-2.9,8.14-5.1.54-.56.83-1.37,1.52-1.79-.16.56-.1,1.18-.21,1.74-1.17,6.06-7.95,7.42-12.33,10.58-2.01,1.45-3.7,3.26-5.28,5.16"/>
        <path class="cls-1" d="M26.27,43.74c-.84-.82-1.33-1.79-2.2-2.63-2.89-2.77-7.45-4.36-8.83-8.48-.42-1.26-.98-4.69.19-5.6,1.77-1.38,2.15,3.09,2.46,3.97,1.24,3.54,5.25,4.87,7.11,7.99.89,1.49,1.25,3,1.29,4.74"/>
      </g>
      <g aria-label="TimTim Ceramic">
        <path class="cls-1" d="M5.998 77.73H8.154V69.918H11.136V67.93H3.016V69.918H5.998ZM12.466 69.4H14.706V67.51H12.466ZM12.522 77.73H14.65V70.226H12.522ZM16.652 77.73H18.78V73.544C18.78 72.536 19.27 72.018 20.068 72.018C20.866 72.018 21.314 72.536 21.314 73.544V77.73H23.442V73.544C23.442 72.536 23.932 72.018 24.73 72.018C25.528 72.018 25.976 72.536 25.976 73.544V77.73H28.104V72.844C28.104 71.038 27.152 70.086 25.57 70.086C24.548 70.086 23.764 70.506 23.106 71.276C22.714 70.52 21.972 70.086 20.992 70.086C19.914 70.086 19.27 70.66 18.78 71.29V70.226H16.652ZM32.458 77.73H34.614V69.918H37.596V67.93H29.476V69.918H32.458ZM38.926 69.4H41.166V67.51H38.926ZM38.982 77.73H41.11V70.226H38.982ZM43.112 77.73H45.24V73.544C45.24 72.536 45.73 72.018 46.528 72.018C47.326 72.018 47.774 72.536 47.774 73.544V77.73H49.902V73.544C49.902 72.536 50.392 72.018 51.19 72.018C51.988 72.018 52.436 72.536 52.436 73.544V77.73H54.564V72.844C54.564 71.038 53.612 70.086 52.03 70.086C51.008 70.086 50.224 70.506 49.566 71.276C49.174 70.52 48.432 70.086 47.452 70.086C46.374 70.086 45.73 70.66 45.24 71.29V70.226H43.112Z"/>
        <path class="cls-1" d="M7.122 91.062C8.607 91.062 9.487 90.534 10.279 89.687L9.201 88.598C8.596 89.148 8.057 89.5 7.177 89.5C5.857 89.5 4.944 88.4 4.944 87.08V87.058C4.944 85.738 5.879 84.66 7.177 84.66C7.947 84.66 8.552 84.99 9.146 85.529L10.224 84.286C9.509 83.582 8.64 83.098 7.188 83.098C4.823 83.098 3.173 84.891 3.173 87.08V87.102C3.173 89.313 4.856 91.062 7.122 91.062ZM11.632 90.93H17.495V89.423H13.315V87.806H16.945V86.299H13.315V84.737H17.44V83.23H11.632ZM19.002 90.93H20.696V88.466H22.027L23.677 90.93H25.657L23.776 88.18C24.755 87.817 25.426 87.036 25.426 85.793V85.771C25.426 85.045 25.195 84.44 24.766 84.011C24.26 83.505 23.501 83.23 22.522 83.23H19.002ZM20.696 86.97V84.759H22.379C23.204 84.759 23.71 85.133 23.71 85.859V85.881C23.71 86.53 23.237 86.97 22.412 86.97ZM26.295 90.93H28.022L28.726 89.203H31.982L32.686 90.93H34.457L31.157 83.175H29.595ZM29.331 87.707 30.354 85.21 31.377 87.707ZM35.645 90.93H37.306V85.936L39.451 89.192H39.495L41.662 85.903V90.93H43.345V83.23H41.519L39.495 86.486L37.471 83.23H35.645ZM45.27 90.93H46.964V83.23H45.27ZM52.497 91.062C53.982 91.062 54.862 90.534 55.654 89.687L54.576 88.598C53.971 89.148 53.432 89.5 52.552 89.5C51.232 89.5 50.319 88.4 50.319 87.08V87.058C50.319 85.738 51.254 84.66 52.552 84.66C53.322 84.66 53.927 84.99 54.521 85.529L55.599 84.286C54.884 83.582 54.015 83.098 52.563 83.098C50.198 83.098 48.548 84.891 48.548 87.08V87.102C48.548 89.313 50.231 91.062 52.497 91.062Z"/>
      </g>
    </g>
  </g>
</svg>
