<?xml version="1.0" encoding="UTF-8"?>
<svg id="Réteg_2" data-name="Réteg 2" xmlns="http://www.w3.org/2000/svg" viewBox="0 0 48.95 48.97">
  <defs>
    <style>
      .cls-1 {
        fill: #3B2D2C;
      }
    </style>
  </defs>
  <g id="Réteg_1" data-name="Réteg 1">
    <g>
      <path class="cls-1" d="M24.29,0c10.9-.2,20.9,7.58,23.74,18.01,6.29,23.11-20.98,40.51-39.33,25.14C-8.71,28.56,1.82.42,24.29,0M8.33,40.74c9.78,9.78,26.07,8.59,34.39-2.4C54.8,22.37,41.81-.47,21.98,1.7,2.96,3.78-5.32,27.08,8.33,40.74"/>
      <path class="cls-1" d="M12.34,33.15c2.6,2.6,6.21,4.08,8.62,6.92,1.31,1.55,2.09,3.47,2.94,5.3-.17.16-1.27-1.03-1.44-1.21-1.3-1.37-2.42-2.88-3.86-4.16-2.49-2.2-5.5-3.93-7.81-6.37-.24.15.06.31.15.43,1.54,2.01,3.68,3.38,5.52,5.08,2.09,1.94,3.95,4.11,5.58,6.45.03.24.01.23-.21.21-.58-.04-4.41-.89-4.63-1.18-.64-4.08-4.52-6.34-7.12-9.14-6.69-7.19-5.56-16.82,2.75-22.03,2.77-1.74,5.99-2.74,8.21-5.33-.04,1.57-.92,3.13-1.93,4.3-1.94,2.25-5.01,2.9-7.24,4.8-5.32,4.53-4.06,11.39.48,15.92"/>
      <path class="cls-1" d="M33.06,43.94c-.45-1.78-.19-3.64.69-5.25l1.6-2.34c-1.79,1.42-3.42,3.88-3.44,6.24,0,1,.91,2.23-.7,2.2-.26-.62-.51-1.17-.66-1.85-1.48-6.65,6.84-9.25,9.27-14.23,1.16-2.37,1.29-5.65.09-8.02-.47-.93-3.04-3.92-2.48-4.83l.36-.23c1.64.56,2.77,2.85,3.3,4.45,1.16,3.5.84,7.14-.86,10.39.37.09.25-.12.37-.27,2.17-2.72,2.32-7.12,1.45-10.36-.34-1.27-1.72-3.84-1.36-5.02.4-1.34,1.89,1.28,2.1,1.71,1.92,3.95,2.04,10.31-.1,14.19-2.15,3.89-7.78,7.11-8.46,11.45-.16,1,.34,1.63-1.16,1.78"/>
      <path class="cls-1" d="M35.89,23.64c.18.17.42,1.09.43,1.36.35,7.23-10.47,7.43-9.71,16.87.12,1.47.85,2.58,1.15,3.93l-1.62.11c-.52-.16-1.55-2.09-1.8-2.64-2.25-4.92-1.13-9.88,3.61-12.68,2.08-1.23,4.53-1.67,5.66-4.08.29-.61,1.06-4.02,2.28-2.88"/>
      <path class="cls-1" d="M30.19,45.23l-1.29.23c-1.48-2.39-1.78-5.45-.55-8.01,2.4-5.02,13.02-8.29,9.51-15.42-.34-.69-2.9-2.88-1.65-3.51,1.11-.56,2.72,2.62,3.01,3.44,3.25,9.36-9.17,11-9.75,18.76-.12,1.65.2,2.98.72,4.52"/>
      <path class="cls-1" d="M18.59,14.43c-.41,3.52-4.7,3.98-6.65,6.46-3.02,3.86-.61,8.12,2.57,10.87,2.67,2.32,6.9,3.91,7.37,7.88-1.07-.84-1.91-1.98-2.94-2.86-4.07-3.47-9.07-5.3-9.5-11.7-.38-5.7,3.48-7.3,7.53-9.63.21-.12,1.55-1.11,1.62-1.03"/>
      <path class="cls-1" d="M6.99,17.44c.73-3.91,3.62-6.9,6.89-8.94,2.17-1.36,5.08-2.45,6.87-4.3.45-.47.7-1.15,1.28-1.51-.13.47-.09.99-.18,1.47-.99,5.11-6.71,6.26-10.41,8.93-1.7,1.23-3.13,2.75-4.46,4.35"/>
      <path class="cls-1" d="M22.17,36.92c-.71-.69-1.12-1.52-1.86-2.22-2.44-2.34-6.29-3.68-7.46-7.16-.36-1.06-.83-3.96.16-4.72,1.49-1.16,1.81,2.6,2.07,3.35,1.04,2.99,4.43,4.11,6,6.75.75,1.26,1.06,2.53,1.08,4"/>
    </g>
  </g>
</svg>
