<?xml version="1.0" encoding="UTF-8"?>
<svg id="Réteg_2" data-name="Réteg 2" xmlns="http://www.w3.org/2000/svg" viewBox="0 0 114.55 46.3">
  <defs>
    <style>
      .cls-1, .cls-2, .cls-3 {
        fill: #fff;
      }

      .cls-2 {
        font-family: Gotham-Bold, Gotham;
        font-size: 14px;
        font-weight: 700;
      }

      .cls-4 {
        letter-spacing: 0em;
      }

      .cls-3 {
        font-family: Gotham-Light, Gotham;
        font-size: 11px;
        font-weight: 300;
      }
    </style>
  </defs>
  <g id="Réteg_1" data-name="Réteg 1">
    <g>
      <g>
        <text class="cls-2" transform="translate(61.6 21.26)"><tspan class="cls-4" x="0" y="0">T</tspan><tspan x="8.95" y="0">im</tspan><tspan class="cls-4" x="26.47" y="0">T</tspan><tspan x="35.42" y="0">im</tspan></text>
        <text class="cls-3" transform="translate(61.66 34.46)"><tspan x="0" y="0">CERAMIC</tspan></text>
      </g>
      <g>
        <path class="cls-1" d="M19.55,3.44c8.77-.16,16.82,6.1,19.1,14.49,5.06,18.6-16.88,32.6-31.65,20.24C-7.01,26.43,1.47,3.78,19.55,3.44M6.7,36.23c7.87,7.87,20.98,6.92,27.68-1.93,9.73-12.85-.73-31.24-16.69-29.49C2.38,6.48-4.29,25.24,6.7,36.23"/>
        <path class="cls-1" d="M9.93,30.12c2.09,2.09,5,3.28,6.94,5.57,1.06,1.25,1.68,2.79,2.36,4.27-.13.13-1.02-.83-1.16-.98-1.05-1.11-1.95-2.32-3.11-3.35-2-1.77-4.43-3.16-6.29-5.13-.19.12.05.25.12.34,1.24,1.61,2.96,2.72,4.44,4.09,1.68,1.56,3.18,3.31,4.49,5.19.03.19.01.19-.17.17-.47-.03-3.55-.71-3.72-.95-.52-3.28-3.64-5.1-5.73-7.35-5.38-5.79-4.47-13.53,2.21-17.73,2.23-1.4,4.82-2.21,6.61-4.29-.03,1.27-.74,2.52-1.55,3.46-1.56,1.81-4.03,2.33-5.83,3.86-4.28,3.64-3.26,9.16.39,12.82"/>
        <path class="cls-1" d="M26.61,38.8c-.37-1.43-.15-2.93.56-4.23l1.29-1.88c-1.44,1.14-2.75,3.12-2.77,5.02,0,.8.73,1.8-.56,1.77-.21-.5-.41-.94-.53-1.49-1.19-5.35,5.5-7.45,7.46-11.46.93-1.9,1.04-4.55.07-6.46-.38-.74-2.45-3.16-2-3.88l.29-.19c1.32.45,2.23,2.29,2.66,3.58.93,2.81.68,5.75-.7,8.36.3.07.2-.1.3-.22,1.74-2.19,1.86-5.73,1.17-8.34-.27-1.03-1.38-3.09-1.1-4.04.32-1.07,1.52,1.03,1.69,1.38,1.54,3.18,1.64,8.3-.08,11.42-1.73,3.13-6.26,5.72-6.81,9.22-.13.81.27,1.31-.93,1.43"/>
        <path class="cls-1" d="M28.88,22.46c.15.14.33.88.35,1.1.28,5.82-8.42,5.98-7.81,13.58.09,1.18.68,2.07.93,3.17l-1.3.09c-.42-.13-1.25-1.68-1.45-2.13-1.81-3.96-.91-7.95,2.9-10.21,1.67-.99,3.65-1.35,4.56-3.28.23-.49.85-3.24,1.83-2.32"/>
        <path class="cls-1" d="M24.3,39.84l-1.04.18c-1.19-1.92-1.43-4.38-.45-6.45,1.93-4.04,10.48-6.67,7.66-12.41-.27-.56-2.33-2.32-1.33-2.83.89-.45,2.19,2.11,2.42,2.77,2.61,7.53-7.38,8.85-7.85,15.1-.1,1.33.16,2.4.58,3.63"/>
        <path class="cls-1" d="M14.96,15.05c-.33,2.83-3.79,3.2-5.35,5.2-2.43,3.1-.49,6.53,2.07,8.75,2.15,1.86,5.55,3.15,5.93,6.34-.86-.68-1.54-1.59-2.37-2.3-3.28-2.79-7.3-4.27-7.65-9.41-.31-4.59,2.8-5.88,6.06-7.75.17-.1,1.25-.9,1.31-.83"/>
        <path class="cls-1" d="M5.62,17.48c.59-3.14,2.92-5.55,5.54-7.2,1.75-1.1,4.09-1.97,5.53-3.46.36-.38.56-.93,1.03-1.22-.11.38-.07.8-.14,1.18-.8,4.11-5.4,5.04-8.37,7.19-1.37.99-2.52,2.21-3.59,3.5"/>
        <path class="cls-1" d="M17.84,33.15c-.57-.56-.9-1.22-1.5-1.79-1.96-1.89-5.06-2.96-6-5.76-.29-.86-.67-3.18.13-3.8,1.2-.94,1.46,2.1,1.67,2.7.84,2.41,3.57,3.31,4.83,5.43.6,1.01.85,2.04.87,3.22"/>
      </g>
      <rect class="cls-1" x="50.29" width=".83" height="46.3"/>
    </g>
  </g>
</svg>