<?xml version="1.0" encoding="UTF-8"?>
<svg id="Réteg_2" data-name="Réteg 2" xmlns="http://www.w3.org/2000/svg" viewBox="0 0 115 46.3">
  <defs>
    <style>
      .cls-1 {
        fill: #fff;
      }
    </style>
  </defs>
  <g id="Réteg_1" data-name="Réteg 1">
    <g>
      <g aria-label="TimTim Ceramic">
        <path class="cls-1" d="M65.058 21.26H67.214V13.448H70.196V11.46H62.076V13.448H65.058ZM71.526 12.93H73.766V11.04H71.526ZM71.582 21.26H73.71V13.756H71.582ZM75.712 21.26H77.84V17.074C77.84 16.066 78.33 15.548 79.128 15.548C79.926 15.548 80.374 16.066 80.374 17.074V21.26H82.502V17.074C82.502 16.066 82.992 15.548 83.79 15.548C84.588 15.548 85.036 16.066 85.036 17.074V21.26H87.164V16.374C87.164 14.568 86.212 13.616 84.63 13.616C83.608 13.616 82.824 14.036 82.166 14.806C81.774 14.05 81.032 13.616 80.052 13.616C78.974 13.616 78.33 14.19 77.84 14.82V13.756H75.712ZM91.518 21.26H93.674V13.448H96.656V11.46H88.536V13.448H91.518ZM97.986 12.93H100.226V11.04H97.986ZM98.042 21.26H100.17V13.756H98.042ZM102.172 21.26H104.3V17.074C104.3 16.066 104.79 15.548 105.588 15.548C106.386 15.548 106.834 16.066 106.834 17.074V21.26H108.962V17.074C108.962 16.066 109.452 15.548 110.25 15.548C111.048 15.548 111.496 16.066 111.496 17.074V21.26H113.624V16.374C113.624 14.568 112.672 13.616 111.09 13.616C110.068 13.616 109.284 14.036 108.626 14.806C108.234 14.05 107.492 13.616 106.512 13.616C105.434 13.616 104.79 14.19 104.3 14.82V13.756H102.172Z"/>
        <path class="cls-1" d="M66.192 34.592C67.677 34.592 68.557 34.064 69.349 33.217L68.271 32.128C67.666 32.678 67.127 33.03 66.247 33.03C64.927 33.03 64.014 31.93 64.014 30.61V30.588C64.014 29.268 64.949 28.19 66.247 28.19C67.017 28.19 67.622 28.52 68.216 29.059L69.294 27.816C68.579 27.112 67.71 26.628 66.258 26.628C63.893 26.628 62.243 28.421 62.243 30.61V30.632C62.243 32.843 63.926 34.592 66.192 34.592ZM70.702 34.46H76.565V32.953H72.385V31.336H76.015V29.829H72.385V28.267H76.51V26.76H70.702ZM78.072 34.46H79.766V31.996H81.097L82.747 34.46H84.727L82.846 31.71C83.825 31.347 84.496 30.566 84.496 29.323V29.301C84.496 28.575 84.265 27.97 83.836 27.541C83.33 27.035 82.571 26.76 81.592 26.76H78.072ZM79.766 30.5V28.289H81.449C82.274 28.289 82.78 28.663 82.78 29.389V29.411C82.78 30.06 82.307 30.5 81.482 30.5ZM85.365 34.46H87.092L87.796 32.733H91.052L91.756 34.46H93.527L90.227 26.705H88.665ZM88.401 31.237 89.424 28.74 90.447 31.237ZM94.715 34.46H96.376V29.466L98.521 32.722H98.565L100.732 29.433V34.46H102.415V26.76H100.589L98.565 30.016L96.541 26.76H94.715ZM104.34 34.46H106.034V26.76H104.34ZM111.567 34.592C113.052 34.592 113.932 34.064 114.724 33.217L113.646 32.128C113.041 32.678 112.502 33.03 111.622 33.03C110.302 33.03 109.389 31.93 109.389 30.61V30.588C109.389 29.268 110.324 28.19 111.622 28.19C112.392 28.19 112.997 28.52 113.591 29.059L114.669 27.816C113.954 27.112 113.085 26.628 111.633 26.628C109.268 26.628 107.618 28.421 107.618 30.61V30.632C107.618 32.843 109.301 34.592 111.567 34.592Z"/>
      </g>
      <g>
        <path class="cls-1" d="M19.55,3.44c8.77-.16,16.82,6.1,19.1,14.49,5.06,18.6-16.88,32.6-31.65,20.24C-7.01,26.43,1.47,3.78,19.55,3.44M6.7,36.23c7.87,7.87,20.98,6.92,27.68-1.93,9.73-12.85-.73-31.24-16.69-29.49C2.38,6.48-4.29,25.24,6.7,36.23"/>
        <path class="cls-1" d="M9.93,30.12c2.09,2.09,5,3.28,6.94,5.57,1.06,1.25,1.68,2.79,2.36,4.27-.13.13-1.02-.83-1.16-.98-1.05-1.11-1.95-2.32-3.11-3.35-2-1.77-4.43-3.16-6.29-5.13-.19.12.05.25.12.34,1.24,1.61,2.96,2.72,4.44,4.09,1.68,1.56,3.18,3.31,4.49,5.19.03.19.01.19-.17.17-.47-.03-3.55-.71-3.72-.95-.52-3.28-3.64-5.1-5.73-7.35-5.38-5.79-4.47-13.53,2.21-17.73,2.23-1.4,4.82-2.21,6.61-4.29-.03,1.27-.74,2.52-1.55,3.46-1.56,1.81-4.03,2.33-5.83,3.86-4.28,3.64-3.26,9.16.39,12.82"/>
        <path class="cls-1" d="M26.61,38.8c-.37-1.43-.15-2.93.56-4.23l1.29-1.88c-1.44,1.14-2.75,3.12-2.77,5.02,0,.8.73,1.8-.56,1.77-.21-.5-.41-.94-.53-1.49-1.19-5.35,5.5-7.45,7.46-11.46.93-1.9,1.04-4.55.07-6.46-.38-.74-2.45-3.16-2-3.88l.29-.19c1.32.45,2.23,2.29,2.66,3.58.93,2.81.68,5.75-.7,8.36.3.07.2-.1.3-.22,1.74-2.19,1.86-5.73,1.17-8.34-.27-1.03-1.38-3.09-1.1-4.04.32-1.07,1.52,1.03,1.69,1.38,1.54,3.18,1.64,8.3-.08,11.42-1.73,3.13-6.26,5.72-6.81,9.22-.13.81.27,1.31-.93,1.43"/>
        <path class="cls-1" d="M28.88,22.46c.15.14.33.88.35,1.1.28,5.82-8.42,5.98-7.81,13.58.09,1.18.68,2.07.93,3.17l-1.3.09c-.42-.13-1.25-1.68-1.45-2.13-1.81-3.96-.91-7.95,2.9-10.21,1.67-.99,3.65-1.35,4.56-3.28.23-.49.85-3.24,1.83-2.32"/>
        <path class="cls-1" d="M24.3,39.84l-1.04.18c-1.19-1.92-1.43-4.38-.45-6.45,1.93-4.04,10.48-6.67,7.66-12.41-.27-.56-2.33-2.32-1.33-2.83.89-.45,2.19,2.11,2.42,2.77,2.61,7.53-7.38,8.85-7.85,15.1-.1,1.33.16,2.4.58,3.63"/>
        <path class="cls-1" d="M14.96,15.05c-.33,2.83-3.79,3.2-5.35,5.2-2.43,3.1-.49,6.53,2.07,8.75,2.15,1.86,5.55,3.15,5.93,6.34-.86-.68-1.54-1.59-2.37-2.3-3.28-2.79-7.3-4.27-7.65-9.41-.31-4.59,2.8-5.88,6.06-7.75.17-.1,1.25-.9,1.31-.83"/>
        <path class="cls-1" d="M5.62,17.48c.59-3.14,2.92-5.55,5.54-7.2,1.75-1.1,4.09-1.97,5.53-3.46.36-.38.56-.93,1.03-1.22-.11.38-.07.8-.14,1.18-.8,4.11-5.4,5.04-8.37,7.19-1.37.99-2.52,2.21-3.59,3.5"/>
        <path class="cls-1" d="M17.84,33.15c-.57-.56-.9-1.22-1.5-1.79-1.96-1.89-5.06-2.96-6-5.76-.29-.86-.67-3.18.13-3.8,1.2-.94,1.46,2.1,1.67,2.7.84,2.41,3.57,3.31,4.83,5.43.6,1.01.85,2.04.87,3.22"/>
      </g>
      <rect class="cls-1" x="50.29" width=".83" height="46.3"/>
    </g>
  </g>
</svg>
